<?xml version="1.0" encoding="UTF-8"?>
<svg xmlns="http://www.w3.org/2000/svg" xmlns:xlink="http://www.w3.org/1999/xlink" width="10px" height="10px" viewBox="0 0 10 10" version="1.1">
<g id="surface1">
<path style=" stroke:none;fill-rule:nonzero;fill:rgb(0%,0%,0%);fill-opacity:1;" d="M 8.664062 7.5625 L 6.101562 4.988281 L 8.671875 2.449219 C 8.773438 2.34375 8.773438 2.171875 8.671875 2.066406 L 7.9375 1.332031 C 7.890625 1.28125 7.820312 1.253906 7.75 1.253906 C 7.675781 1.253906 7.609375 1.285156 7.554688 1.332031 L 5 3.863281 L 2.4375 1.335938 C 2.390625 1.28125 2.320312 1.257812 2.25 1.257812 C 2.175781 1.257812 2.109375 1.285156 2.054688 1.335938 L 1.328125 2.070312 C 1.222656 2.171875 1.222656 2.34375 1.328125 2.453125 L 3.898438 4.992188 L 1.335938 7.5625 C 1.285156 7.613281 1.257812 7.679688 1.257812 7.753906 C 1.257812 7.824219 1.285156 7.890625 1.335938 7.945312 L 2.066406 8.679688 C 2.121094 8.730469 2.1875 8.757812 2.257812 8.757812 C 2.328125 8.757812 2.398438 8.734375 2.449219 8.679688 L 5 6.117188 L 7.554688 8.675781 C 7.605469 8.726562 7.671875 8.757812 7.742188 8.757812 C 7.8125 8.757812 7.882812 8.730469 7.9375 8.675781 L 8.664062 7.941406 C 8.71875 7.890625 8.746094 7.820312 8.746094 7.75 C 8.742188 7.679688 8.714844 7.609375 8.664062 7.5625 Z M 8.664062 7.5625 "/>
</g>
</svg>
