<?xml version="1.0" encoding="UTF-8"?>
<svg xmlns="http://www.w3.org/2000/svg" xmlns:xlink="http://www.w3.org/1999/xlink" width="17px" height="16px" viewBox="0 0 16 16" version="1.1">
<g id="surface1">
<path style=" stroke:none;fill-rule:nonzero;fill:rgb(0%,0%,0%);fill-opacity:1;" d="M 0.210938 15.734375 C 0.117188 15.632812 0.0820312 15.492188 0.109375 15.359375 L 1.136719 10.574219 C 1.15625 10.492188 1.199219 10.417969 1.257812 10.363281 L 1.253906 10.359375 L 11.21875 0.6875 C 12.066406 -0.132812 13.394531 -0.0859375 14.191406 0.792969 L 15.429688 2.167969 C 16.21875 3.050781 16.175781 4.433594 15.328125 5.257812 L 5.367188 14.925781 L 5.363281 14.921875 C 5.304688 14.980469 5.238281 15.015625 5.160156 15.03125 L 0.566406 15.855469 C 0.542969 15.859375 0.523438 15.863281 0.5 15.863281 C 0.390625 15.863281 0.285156 15.816406 0.210938 15.734375 Z M 1.019531 14.933594 L 1.664062 14.820312 C 1.558594 14.585938 1.382812 14.390625 1.160156 14.265625 Z M 1.339844 13.433594 C 1.871094 13.660156 2.28125 14.113281 2.472656 14.675781 L 4.664062 14.28125 C 4.640625 14.105469 4.5625 13.941406 4.4375 13.820312 C 4.292969 13.703125 4.109375 13.648438 3.925781 13.667969 C 3.796875 13.691406 3.667969 13.644531 3.582031 13.550781 C 3.492188 13.453125 3.449219 13.320312 3.472656 13.191406 C 3.527344 13.007812 3.492188 12.808594 3.382812 12.65625 C 3.195312 12.488281 2.957031 12.394531 2.710938 12.390625 C 2.59375 12.390625 2.480469 12.339844 2.40625 12.246094 C 2.328125 12.152344 2.296875 12.03125 2.316406 11.910156 C 2.371094 11.710938 2.335938 11.496094 2.21875 11.324219 C 2.117188 11.214844 1.984375 11.140625 1.839844 11.113281 Z M 2.355469 10.425781 C 2.53125 10.507812 2.6875 10.625 2.816406 10.773438 C 3.011719 11.007812 3.121094 11.304688 3.128906 11.613281 C 3.460938 11.683594 3.765625 11.859375 3.992188 12.121094 C 4.160156 12.332031 4.261719 12.589844 4.28125 12.863281 C 4.777344 12.949219 5.191406 13.304688 5.359375 13.800781 L 12.546875 6.824219 L 9.523438 3.46875 Z M 10.105469 2.902344 L 13.128906 6.257812 L 13.363281 6.03125 L 10.339844 2.675781 Z M 11.761719 1.296875 L 10.921875 2.109375 L 13.945312 5.464844 L 14.785156 4.652344 C 15.308594 4.140625 15.335938 3.28125 14.84375 2.734375 L 13.609375 1.359375 C 13.113281 0.8125 12.289062 0.785156 11.761719 1.296875 Z M 5.191406 11.878906 L 5.511719 11.566406 L 6.058594 12.171875 L 5.738281 12.480469 Z M 6.265625 10.832031 L 10.902344 6.335938 L 11.445312 6.941406 L 6.8125 11.4375 Z M 6.265625 10.832031 "/>
</g>
</svg>
