<?xml version="1.0" encoding="UTF-8"?>
<svg xmlns="http://www.w3.org/2000/svg" xmlns:xlink="http://www.w3.org/1999/xlink" width="16px" height="16px" viewBox="0 0 16 16" version="1.1">
<g id="surface1">
<path style=" stroke:none;fill-rule:nonzero;fill:rgb(0%,0%,0%);fill-opacity:1;" d="M 5.851562 0.207031 C 5.558594 0.277344 5.308594 0.421875 5.074219 0.660156 C 4.738281 1 4.574219 1.414062 4.570312 1.910156 L 4.570312 2.113281 L 3.011719 2.125 C 1.488281 2.132812 1.449219 2.136719 1.367188 2.195312 C 1.203125 2.316406 1.15625 2.414062 1.15625 2.609375 C 1.15625 2.800781 1.203125 2.898438 1.367188 3.019531 C 1.441406 3.074219 1.5 3.082031 2.03125 3.089844 L 2.609375 3.101562 L 2.609375 8.710938 C 2.609375 14.921875 2.597656 14.5 2.8125 14.925781 C 3.027344 15.355469 3.484375 15.710938 3.949219 15.804688 C 4.175781 15.851562 11.820312 15.851562 12.050781 15.804688 C 12.671875 15.675781 13.210938 15.132812 13.347656 14.496094 C 13.382812 14.328125 13.390625 13.378906 13.390625 8.695312 L 13.390625 3.101562 L 13.96875 3.089844 C 14.5 3.082031 14.558594 3.074219 14.632812 3.019531 C 14.796875 2.898438 14.84375 2.800781 14.84375 2.609375 C 14.84375 2.414062 14.796875 2.316406 14.632812 2.199219 C 14.550781 2.136719 14.511719 2.132812 12.988281 2.125 L 11.429688 2.113281 L 11.429688 1.894531 C 11.425781 1.222656 11.066406 0.621094 10.5 0.339844 C 10.359375 0.273438 10.175781 0.203125 10.085938 0.1875 C 9.988281 0.167969 9.144531 0.15625 7.972656 0.160156 C 6.421875 0.160156 5.988281 0.171875 5.851562 0.207031 Z M 10 1.175781 C 10.277344 1.296875 10.421875 1.523438 10.445312 1.878906 L 10.460938 2.117188 L 5.539062 2.117188 L 5.554688 1.878906 C 5.578125 1.53125 5.722656 1.300781 5.992188 1.179688 C 6.132812 1.121094 9.855469 1.121094 10 1.175781 Z M 12.410156 8.679688 C 12.40625 13.261719 12.402344 14.285156 12.367188 14.378906 C 12.300781 14.558594 12.171875 14.707031 12 14.785156 L 11.84375 14.859375 L 4.15625 14.859375 L 4 14.785156 C 3.828125 14.707031 3.699219 14.558594 3.632812 14.378906 C 3.597656 14.285156 3.59375 13.261719 3.589844 8.679688 L 3.589844 3.097656 L 12.410156 3.097656 Z M 12.410156 8.679688 "/>
<path style=" stroke:none;fill-rule:nonzero;fill:rgb(0%,0%,0%);fill-opacity:1;" d="M 5.351562 4.609375 C 5.226562 4.664062 5.097656 4.820312 5.074219 4.945312 C 5.066406 5 5.0625 6.851562 5.066406 9.0625 C 5.074219 13.0625 5.074219 13.078125 5.140625 13.164062 C 5.257812 13.324219 5.355469 13.375 5.550781 13.375 C 5.742188 13.375 5.839844 13.324219 5.960938 13.164062 C 6.023438 13.078125 6.023438 13.070312 6.023438 8.976562 C 6.023438 4.886719 6.023438 4.878906 5.960938 4.792969 C 5.925781 4.75 5.863281 4.679688 5.820312 4.652344 C 5.71875 4.574219 5.472656 4.550781 5.351562 4.609375 Z M 5.351562 4.609375 "/>
<path style=" stroke:none;fill-rule:nonzero;fill:rgb(0%,0%,0%);fill-opacity:1;" d="M 7.800781 4.609375 C 7.675781 4.664062 7.546875 4.820312 7.523438 4.945312 C 7.515625 5 7.511719 6.851562 7.515625 9.0625 C 7.523438 13.0625 7.523438 13.078125 7.589844 13.164062 C 7.710938 13.324219 7.808594 13.375 8 13.375 C 8.191406 13.375 8.292969 13.324219 8.410156 13.164062 C 8.476562 13.078125 8.476562 13.070312 8.476562 8.976562 C 8.476562 4.886719 8.476562 4.878906 8.410156 4.792969 C 8.375 4.75 8.3125 4.679688 8.269531 4.652344 C 8.167969 4.574219 7.921875 4.550781 7.800781 4.609375 Z M 7.800781 4.609375 "/>
<path style=" stroke:none;fill-rule:nonzero;fill:rgb(0%,0%,0%);fill-opacity:1;" d="M 10.25 4.609375 C 10.125 4.664062 9.996094 4.820312 9.976562 4.945312 C 9.964844 5 9.964844 6.851562 9.964844 9.0625 C 9.976562 13.0625 9.976562 13.078125 10.039062 13.164062 C 10.160156 13.324219 10.257812 13.375 10.449219 13.375 C 10.644531 13.375 10.742188 13.324219 10.859375 13.164062 C 10.925781 13.078125 10.925781 13.070312 10.925781 8.976562 C 10.925781 4.886719 10.925781 4.878906 10.859375 4.792969 C 10.828125 4.75 10.761719 4.679688 10.71875 4.652344 C 10.617188 4.574219 10.375 4.550781 10.25 4.609375 Z M 10.25 4.609375 "/>
</g>
</svg>
