<?xml version="1.0" encoding="UTF-8"?>
<svg xmlns="http://www.w3.org/2000/svg" xmlns:xlink="http://www.w3.org/1999/xlink" width="20px" height="20px" viewBox="0 0 20 20" version="1.1">
<g id="surface1">
<path style=" stroke:none;fill-rule:nonzero;fill:rgb(0%,0%,0%);fill-opacity:1;" d="M 18.078125 2.488281 L 1.921875 2.488281 C 0.859375 2.488281 0 3.351562 0 4.398438 L 0 15.601562 C 0 16.660156 0.859375 17.519531 1.921875 17.519531 L 18.089844 17.519531 C 19.148438 17.519531 20.011719 16.660156 20.011719 15.601562 L 20.011719 4.398438 C 20 3.351562 19.140625 2.488281 18.078125 2.488281 Z M 1.339844 4.398438 C 1.339844 4.078125 1.601562 3.828125 1.910156 3.828125 L 18.078125 3.828125 C 18.398438 3.828125 18.648438 4.089844 18.648438 4.398438 L 18.648438 15.601562 C 18.648438 15.921875 18.390625 16.171875 18.078125 16.171875 L 1.921875 16.171875 C 1.601562 16.171875 1.351562 15.910156 1.351562 15.601562 L 1.351562 4.398438 Z M 1.339844 4.398438 "/>
<path style=" stroke:none;fill-rule:nonzero;fill:rgb(0%,0%,0%);fill-opacity:1;" d="M 3.421875 8.488281 L 9.640625 12.640625 C 9.75 12.710938 9.878906 12.75 10.011719 12.75 C 10.140625 12.75 10.269531 12.710938 10.378906 12.640625 L 16.601562 8.488281 C 16.890625 8.28125 16.96875 7.890625 16.78125 7.589844 C 16.578125 7.28125 16.171875 7.179688 15.851562 7.378906 L 10 11.28125 L 4.148438 7.378906 C 4.140625 7.371094 4.128906 7.371094 4.121094 7.359375 C 3.808594 7.160156 3.390625 7.261719 3.191406 7.570312 C 3.019531 7.878906 3.109375 8.300781 3.421875 8.488281 Z M 3.421875 8.488281 "/>
</g>
</svg>
