<?xml version="1.0" encoding="UTF-8"?>
<svg xmlns="http://www.w3.org/2000/svg" xmlns:xlink="http://www.w3.org/1999/xlink" width="18px" height="18px" viewBox="0 0 18 18" version="1.1">
<g id="surface1">
<path style=" stroke:none;fill-rule:nonzero;fill:rgb(0%,0%,0%);fill-opacity:1;" d="M 8.875 6.832031 L 10.769531 8.722656 C 10.769531 8.664062 10.769531 8.664062 10.769531 8.601562 C 10.769531 7.5625 9.980469 6.765625 8.941406 6.765625 C 8.941406 6.832031 8.941406 6.832031 8.875 6.832031 Z M 6.253906 7.316406 L 7.167969 8.238281 C 7.167969 8.421875 7.167969 8.542969 7.167969 8.664062 C 7.167969 9.703125 7.960938 10.492188 9 10.492188 C 9.121094 10.492188 9.246094 10.492188 9.425781 10.4375 L 10.339844 11.351562 C 9.914062 11.597656 9.488281 11.71875 9 11.71875 C 7.289062 11.71875 5.945312 10.371094 5.945312 8.664062 C 5.945312 8.171875 6.070312 7.746094 6.253906 7.316406 Z M 2.894531 3.960938 L 4.292969 5.367188 L 4.539062 5.609375 C 3.503906 6.402344 2.707031 7.441406 2.28125 8.664062 C 3.320312 11.351562 5.945312 13.242188 9 13.242188 C 9.914062 13.242188 10.832031 13.058594 11.6875 12.757812 L 11.929688 13.003906 L 13.707031 14.769531 L 14.496094 13.972656 L 3.6875 3.164062 Z M 9 5.609375 C 10.710938 5.609375 12.054688 6.957031 12.054688 8.664062 C 12.054688 9.03125 11.992188 9.457031 11.808594 9.761719 L 13.582031 11.535156 C 14.496094 10.738281 15.226562 9.761719 15.65625 8.664062 C 14.621094 5.976562 11.992188 4.082031 8.941406 4.082031 C 8.085938 4.082031 7.289062 4.265625 6.5 4.511719 L 7.839844 5.851562 C 8.203125 5.671875 8.632812 5.609375 9 5.609375 Z M 9 5.609375 "/>
</g>
</svg>
