<?xml version="1.0" encoding="UTF-8"?>
<svg xmlns="http://www.w3.org/2000/svg" xmlns:xlink="http://www.w3.org/1999/xlink" width="20px" height="20px" viewBox="0 0 20 20" version="1.1">
<g id="surface1">
<path style=" stroke:none;fill-rule:nonzero;fill:rgb(0%,0%,0%);fill-opacity:1;" d="M 15.101562 18.503906 L 4.898438 18.503906 C 3.722656 18.503906 2.773438 17.550781 2.773438 16.378906 L 2.773438 11.277344 C 2.773438 10.402344 3.296875 9.65625 4.046875 9.328125 L 4.046875 7.449219 C 4.046875 4.160156 6.710938 1.496094 10 1.496094 C 12.761719 1.496094 15.078125 3.382812 15.75 5.933594 L 15.742188 5.9375 C 15.765625 6.011719 15.78125 6.089844 15.78125 6.171875 C 15.78125 6.644531 15.398438 7.023438 14.929688 7.023438 C 14.558594 7.023438 14.246094 6.785156 14.128906 6.453125 C 13.679688 4.585938 12.003906 3.199219 10 3.199219 C 7.652344 3.199219 5.75 5.101562 5.75 7.449219 L 5.75 9.148438 L 15.101562 9.148438 C 16.277344 9.148438 17.226562 10.101562 17.226562 11.277344 L 17.226562 16.378906 C 17.226562 17.550781 16.277344 18.503906 15.101562 18.503906 Z M 15.527344 11.699219 C 15.527344 11.230469 15.144531 10.851562 14.675781 10.851562 L 5.324219 10.851562 C 4.855469 10.851562 4.472656 11.230469 4.472656 11.699219 L 4.472656 15.953125 C 4.472656 16.421875 4.855469 16.800781 5.324219 16.800781 L 14.675781 16.800781 C 15.144531 16.800781 15.527344 16.421875 15.527344 15.953125 Z M 15.527344 11.699219 "/>
</g>
</svg>
