<?xml version="1.0" encoding="UTF-8"?>
<svg xmlns="http://www.w3.org/2000/svg" xmlns:xlink="http://www.w3.org/1999/xlink" width="20px" height="20px" viewBox="0 0 20 20" version="1.1">
<g id="surface1">
<path style=" stroke:none;fill-rule:evenodd;fill:rgb(0%,0%,0%);fill-opacity:1;" d="M 17.722656 7.65625 C 18.972656 7.644531 19.980469 8.648438 19.980469 9.898438 C 19.976562 11.148438 18.960938 12.167969 17.710938 12.179688 L 12.234375 12.21875 L 12.195312 17.703125 C 12.1875 18.941406 11.164062 19.945312 9.917969 19.941406 C 8.667969 19.941406 7.664062 18.933594 7.675781 17.695312 L 7.714844 12.25 L 2.257812 12.289062 C 1.007812 12.296875 -0.00390625 11.292969 0 10.042969 C 0.00390625 8.792969 1.019531 7.773438 2.265625 7.761719 L 7.746094 7.726562 L 7.785156 2.242188 C 7.792969 1 8.816406 0 10.0625 0 C 11.3125 0 12.3125 1.007812 12.304688 2.246094 L 12.265625 7.695312 Z M 17.722656 7.65625 "/>
</g>
</svg>
