<?xml version="1.0" encoding="UTF-8"?>
<svg xmlns="http://www.w3.org/2000/svg" xmlns:xlink="http://www.w3.org/1999/xlink" width="18px" height="18px" viewBox="0 0 18 18" version="1.1">
<g id="surface1">
<path style=" stroke:none;fill-rule:nonzero;fill:rgb(0%,0%,0%);fill-opacity:1;" d="M 8.988281 6.835938 C 7.953125 6.835938 7.160156 7.628906 7.160156 8.664062 C 7.160156 9.703125 7.953125 10.492188 8.988281 10.492188 C 10.023438 10.492188 10.820312 9.703125 10.820312 8.664062 C 10.820312 7.628906 10.023438 6.835938 8.988281 6.835938 Z M 8.988281 11.714844 C 7.28125 11.714844 5.941406 10.375 5.941406 8.664062 C 5.941406 6.960938 7.28125 5.617188 8.988281 5.617188 C 10.695312 5.617188 12.035156 6.960938 12.035156 8.664062 C 12.035156 10.375 10.695312 11.714844 8.988281 11.714844 Z M 8.988281 4.089844 C 5.941406 4.089844 3.316406 5.984375 2.28125 8.664062 C 3.316406 11.351562 5.941406 13.242188 8.988281 13.242188 C 12.035156 13.242188 14.660156 11.351562 15.695312 8.664062 C 14.660156 5.984375 12.035156 4.089844 8.988281 4.089844 Z M 8.988281 4.089844 "/>
</g>
</svg>
