<?xml version="1.0" encoding="UTF-8"?>
<svg xmlns="http://www.w3.org/2000/svg" xmlns:xlink="http://www.w3.org/1999/xlink" width="20px" height="20px" viewBox="0 0 20 20" version="1.1">
<g id="surface1">
<path style=" stroke:none;fill-rule:nonzero;fill:rgb(0%,0%,0%);fill-opacity:1;" d="M 16.765625 14.914062 C 16.398438 14.039062 15.867188 13.253906 15.195312 12.578125 C 14.519531 11.90625 13.734375 11.375 12.859375 11.007812 C 12.851562 11 12.84375 11 12.835938 10.996094 C 14.054688 10.117188 14.84375 8.6875 14.84375 7.070312 C 14.84375 4.394531 12.675781 2.226562 10 2.226562 C 7.324219 2.226562 5.15625 4.394531 5.15625 7.070312 C 5.15625 8.6875 5.945312 10.117188 7.164062 11 C 7.15625 11.003906 7.148438 11.003906 7.140625 11.007812 C 6.265625 11.375 5.480469 11.90625 4.804688 12.582031 C 4.132812 13.257812 3.605469 14.042969 3.234375 14.914062 C 2.867188 15.773438 2.675781 16.679688 2.65625 17.613281 C 2.65625 17.703125 2.726562 17.773438 2.8125 17.773438 L 3.984375 17.773438 C 4.070312 17.773438 4.140625 17.703125 4.140625 17.621094 C 4.179688 16.113281 4.785156 14.703125 5.855469 13.632812 C 6.960938 12.523438 8.433594 11.914062 10 11.914062 C 11.566406 11.914062 13.039062 12.523438 14.144531 13.632812 C 15.214844 14.703125 15.820312 16.113281 15.859375 17.621094 C 15.859375 17.707031 15.929688 17.773438 16.015625 17.773438 L 17.1875 17.773438 C 17.273438 17.773438 17.34375 17.703125 17.34375 17.613281 C 17.324219 16.679688 17.132812 15.773438 16.765625 14.914062 Z M 10 10.429688 C 9.101562 10.429688 8.257812 10.078125 7.625 9.445312 C 6.992188 8.8125 6.640625 7.96875 6.640625 7.070312 C 6.640625 6.171875 6.992188 5.328125 7.625 4.695312 C 8.257812 4.0625 9.101562 3.710938 10 3.710938 C 10.898438 3.710938 11.742188 4.0625 12.375 4.695312 C 13.007812 5.328125 13.359375 6.171875 13.359375 7.070312 C 13.359375 7.96875 13.007812 8.8125 12.375 9.445312 C 11.742188 10.078125 10.898438 10.429688 10 10.429688 Z M 10 10.429688 "/>
</g>
</svg>
