<?xml version="1.0" encoding="UTF-8" standalone="no"?>
<svg
   width="17"
   height="16"
   viewBox="0 0 17 16"
   fill="none"
   version="1.1"
   id="svg152"
   sodipodi:docname="plusIcon.svg"
   inkscape:version="1.2.2 (732a01da63, 2022-12-09, custom)"
   xmlns:inkscape="http://www.inkscape.org/namespaces/inkscape"
   xmlns:sodipodi="http://sodipodi.sourceforge.net/DTD/sodipodi-0.dtd"
   xmlns="http://www.w3.org/2000/svg"
   xmlns:svg="http://www.w3.org/2000/svg">
  <defs
     id="defs156" />
  <sodipodi:namedview
     id="namedview154"
     pagecolor="#505050"
     bordercolor="#eeeeee"
     borderopacity="1"
     inkscape:showpageshadow="0"
     inkscape:pageopacity="0"
     inkscape:pagecheckerboard="0"
     inkscape:deskcolor="#505050"
     showgrid="false"
     inkscape:zoom="50.8125"
     inkscape:cx="8.098401"
     inkscape:cy="8"
     inkscape:window-width="1920"
     inkscape:window-height="1016"
     inkscape:window-x="0"
     inkscape:window-y="27"
     inkscape:window-maximized="1"
     inkscape:current-layer="svg152" />
  <path
     style="fill:#000000;stroke-width:0.0196802"
     d="m 8.3455216,14.560195 c -0.2815,-0.0357 -0.584054,-0.197506 -0.775566,-0.414781 -0.117405,-0.133198 -0.240229,-0.38006 -0.277338,-0.557415 -0.02426,-0.115941 -0.02888,-0.470527 -0.02916,-2.238622 l -3.47e-4,-2.1008617 h -2.032497 c -1.308142,0 -2.091521,-0.0074 -2.198115,-0.02077 -0.424941,-0.05328 -0.780109,-0.302438 -0.966307,-0.67788 -0.179294,-0.361519 -0.179294,-0.740571 0,-1.102091 0.186198,-0.375441 0.541366,-0.624597 0.966307,-0.67788 0.106594,-0.01337 0.889973,-0.02077 2.198115,-0.02077 h 2.032497 l 3.42e-4,-2.1008606 c 3.82e-4,-2.3421295 -0.0046,-2.2502779 0.136073,-2.5338253 0.36693,-0.7398595 1.339806,-0.915727 1.948457,-0.3522239 0.139437,0.1290946 0.25073,0.2986578 0.328331,0.5002389 l 0.05666,0.1471879 0.0054,2.1690002 0.0054,2.1689998 2.1397234,0.0062 c 1.959277,0.0057 2.149681,0.0091 2.257805,0.04027 0.426053,0.122964 0.741155,0.428227 0.888037,0.860308 0.05192,0.15272 0.05192,0.536086 0,0.688807 -0.146882,0.432081 -0.461984,0.737344 -0.888037,0.860307 -0.108124,0.03121 -0.298528,0.0346 -2.257805,0.04027 l -2.1397234,0.0062 -0.0054,2.1690007 -0.0054,2.169 -0.05666,0.147188 c -0.21842,0.567382 -0.752324,0.89837 -1.330792,0.825013 z"
     id="path535" />
  <path
     style="fill:#000000;stroke-width:0.0196802"
     d="m 8.3455216,14.560195 c -0.2815,-0.0357 -0.584054,-0.197506 -0.775566,-0.414781 -0.117405,-0.133198 -0.240229,-0.38006 -0.277338,-0.557415 -0.02426,-0.115941 -0.02888,-0.470527 -0.02916,-2.238622 l -3.47e-4,-2.1008617 h -2.032497 c -1.308142,0 -2.091521,-0.0074 -2.198115,-0.02077 -0.424941,-0.05328 -0.780109,-0.302438 -0.966307,-0.67788 -0.179294,-0.361519 -0.179294,-0.740571 0,-1.102091 0.186198,-0.375441 0.541366,-0.624597 0.966307,-0.67788 0.106594,-0.01337 0.889973,-0.02077 2.198115,-0.02077 h 2.032497 l 3.42e-4,-2.1008606 c 3.82e-4,-2.3421295 -0.0046,-2.2502779 0.136073,-2.5338253 0.36693,-0.7398595 1.339806,-0.915727 1.948457,-0.3522239 0.139437,0.1290946 0.25073,0.2986578 0.328331,0.5002389 l 0.05666,0.1471879 0.0054,2.1690002 0.0054,2.1689998 2.1397234,0.0062 c 1.959277,0.0057 2.149681,0.0091 2.257805,0.04027 0.426053,0.122964 0.741155,0.428227 0.888037,0.860308 0.05192,0.15272 0.05192,0.536086 0,0.688807 -0.146882,0.432081 -0.461984,0.737344 -0.888037,0.860307 -0.108124,0.03121 -0.298528,0.0346 -2.257805,0.04027 l -2.1397234,0.0062 -0.0054,2.1690007 -0.0054,2.169 -0.05666,0.147188 c -0.21842,0.567382 -0.752324,0.89837 -1.330792,0.825013 z"
     id="path1091" />
</svg>
